<!DOCTYPE svg PUBLIC "-//W3C//DTD SVG 1.1//EN" "http://www.w3.org/Graphics/SVG/1.1/DTD/svg11.dtd">
<!-- Uploaded to: SVG Repo, www.svgrepo.com, Transformed by: SVG Repo Mixer Tools -->
<svg version="1.1" id="Layer_1" xmlns="http://www.w3.org/2000/svg" xmlns:xlink="http://www.w3.org/1999/xlink" viewBox="0 0 392.534 392.534" xml:space="preserve" width="64px" height="64px" fill="#000000">
<g id="SVGRepo_bgCarrier" stroke-width="0"/>
<g id="SVGRepo_tracerCarrier" stroke-linecap="round" stroke-linejoin="round"/>
<g id="SVGRepo_iconCarrier"> <rect x="121.869" y="21.851" style="fill:#FFFFFF;" width="208.485" height="269.317"/> <path style="fill:#56ACE0;" d="M143.719,43.636v18.877h39.111c6.012,0,10.925,4.848,10.925,10.925 c0,6.077-4.848,10.925-10.925,10.925h-39.111v21.786h19.459c6.012,0,10.925,4.848,10.925,10.925c0,6.012-4.848,10.925-10.925,10.925 h-19.459v141.382h164.848V43.766H143.719V43.636z"/> <g> <path style="fill:#194F82;" d="M189.295,167.434h25.859v25.859c0,6.012,4.848,10.925,10.925,10.925 c6.012,0,10.925-4.848,10.925-10.925v-25.859h25.859c6.012,0,10.925-4.848,10.925-10.925c0-6.077-4.849-10.925-10.925-10.925 h-25.859v-25.859c0-6.012-4.848-10.925-10.925-10.925c-6.012,0-10.925,4.848-10.925,10.925v25.859h-25.859 c-6.012,0-10.925,4.848-10.925,10.925C178.37,162.586,183.283,167.434,189.295,167.434z"/> <path style="fill:#194F82;" d="M348.843,373.85c-8.792-8.404-13.705-19.717-13.705-31.935s4.848-23.467,13.705-31.935 c2.263-2.069,3.297-4.913,3.297-7.887h0.065V10.925C352.204,4.913,347.356,0,341.279,0H82.047C59.033,0,40.22,18.747,40.22,41.826 V341.85c0,27.992,22.691,50.683,50.683,50.683h250.311C352.01,392.598,355.695,380.315,348.843,373.85z M62.071,41.891 c0-11.055,8.986-20.04,20.04-20.04h18.036v269.317h-9.115c-10.731,0-20.687,3.426-28.897,9.115 C62.071,300.283,62.071,41.891,62.071,41.891z M319.946,370.812H90.968c-15.903,0-28.897-12.994-28.897-28.897 c0-15.903,12.994-28.897,28.897-28.897h228.978c-4.331,8.857-6.659,18.683-6.659,28.897S315.614,361.956,319.946,370.812z M330.354,291.168H121.869V21.851h208.485V291.168z"/> </g> <path style="fill:#FFFFFF;" d="M90.968,313.018c-15.903,0-28.897,12.994-28.897,28.897c0,15.903,12.994,28.897,28.897,28.897 h228.978c-4.331-8.857-6.659-18.683-6.659-28.897s2.327-20.04,6.659-28.897H90.968z"/> <path style="fill:#FFC10D;" d="M100.083,291.168V21.851H82.047c-11.055,0-20.04,8.986-20.04,20.04v258.392 c8.21-5.689,18.166-9.115,28.897-9.115L100.083,291.168L100.083,291.168z"/> </g>
</svg>